<svg xmlns="http://www.w3.org/2000/svg" width="1000" height="1000" viewBox="0 0 1000 1000" version="1.1"><path d="M 13 500 L 13 987 500 987 L 987 987 987 500 L 987 13 500 13 L 13 13 13 500 M 617 192.107 C 617 237.405, 616.742 249.106, 615.750 248.690 C 569.255 229.193, 525.034 219.098, 463 213.819 C 438.280 211.715, 352.291 212.037, 330 214.317 C 266.057 220.856, 217.036 233.600, 176.908 254.119 C 150.161 267.795, 126.466 288.014, 112.934 308.710 C 103.584 323.010, 99.796 336.013, 96.390 365.500 C 94.867 378.687, 94.609 394.760, 94.254 498.500 C 93.982 577.782, 94.210 621.914, 94.948 633 C 98.179 681.547, 108.133 716.692, 125.013 739.152 C 150.959 773.676, 209.026 799.734, 286 811.398 C 326.495 817.535, 359.150 819.396, 414.281 818.711 C 473.631 817.974, 505.597 814.360, 549 803.481 C 570.542 798.082, 599.364 787.957, 613.009 780.995 L 617 778.959 617 842.980 L 617 907 779 907 L 941 907 941 829.500 L 941 752 880 752 L 819 752 819 443.500 L 819 135 718 135 L 617 135 617 192.107 M 382.369 313.493 C 372.426 315.655, 364.870 320.604, 361.402 327.225 C 358.678 332.426, 356.053 346.578, 355.044 361.500 C 353.703 381.347, 353.688 651.459, 355.027 671.134 C 356.623 694.603, 360.722 706.911, 368.692 712.170 C 376.789 717.514, 381.940 718.503, 401.500 718.467 C 417.939 718.437, 420.006 718.233, 425.332 716.114 C 438.548 710.858, 443.053 702.870, 445.983 679.500 C 446.603 674.550, 447.378 648.563, 447.705 621.750 L 448.300 573 532.650 573 L 617 573 617 526 L 617 479 532.500 479 L 448 479 447.982 430.750 C 447.955 359.342, 446.450 336.758, 440.960 325.417 C 438.243 319.805, 431.828 315.576, 422.976 313.563 C 414.460 311.626, 391.137 311.585, 382.369 313.493" stroke="none" fill="#ffffff" fill-rule="evenodd"/><path d="M 0 500.001 L 0 1000.002 500.250 999.751 L 1000.500 999.500 1000.751 499.750 L 1001.002 0 500.501 0 L 0 0 0 500.001 M 0.496 500.500 C 0.496 775.500, 0.610 887.851, 0.750 750.168 C 0.890 612.486, 0.890 387.486, 0.750 250.168 C 0.610 112.851, 0.496 225.500, 0.496 500.500 M 13 500 L 13 987 500 987 L 987 987 987 500 L 987 13 500 13 L 13 13 13 500 M 618 192.442 L 618 249.885 630.750 256.472 C 653.752 268.357, 672.194 283.497, 682.441 298.911 C 693.967 316.249, 701.402 340.386, 705.569 374 C 706.821 384.099, 707.367 399.027, 707.734 433.250 L 708.224 479 663.112 479 L 618 479 618 526 L 618 573 663.149 573 L 708.298 573 707.697 604.750 C 706.907 646.521, 704.452 669.004, 697.960 693.928 C 692.071 716.539, 685.644 728.245, 671 743.035 C 659.591 754.557, 646.986 763.607, 628.641 773.448 L 618 779.155 618 843.078 L 618 907 779 907 L 940 907 940 829.500 L 940 752 879 752 L 818 752 818 443.500 L 818 135 718 135 L 618 135 618 192.442" stroke="none" fill="#000000" fill-rule="evenodd"/><path d="M 357.500 213.092 C 287.808 216.532, 226.634 230.404, 181.037 253.105 C 150.699 268.210, 127.252 287.635, 113.271 309.249 C 103.056 325.039, 99.215 340.486, 95.927 379 C 94.354 397.427, 93.534 578.064, 94.862 613.500 C 96.885 667.446, 102.535 696.141, 116.711 724.462 C 140.919 772.823, 215.016 805.187, 325 815.438 C 410.323 823.391, 499.292 817.526, 559.582 799.974 C 594.116 789.921, 628.546 774.766, 649.856 760.240 C 684.283 736.771, 697.849 711.122, 704.460 657 C 706.283 642.074, 707.957 609.394, 707.982 588.250 L 708 573 578.089 573 L 448.178 573 447.708 626.250 C 447.209 682.797, 446.771 688.519, 441.947 701.412 C 439.175 708.822, 432.948 714.299, 424.103 717.107 C 410.887 721.302, 385.029 720.669, 374.055 715.880 C 363.746 711.381, 359.655 705.400, 356.344 689.989 C 354.631 682.013, 354.501 671.915, 354.200 523 C 353.976 412.103, 354.212 361.196, 354.988 353.500 C 357.884 324.751, 363.887 316.489, 384.838 312.424 C 393.367 310.769, 409.666 310.577, 419 312.021 C 422.575 312.574, 428.411 314.483, 431.969 316.263 C 437.669 319.115, 438.771 320.154, 441.234 325 C 447.039 336.419, 447.250 339.246, 447.715 411.750 L 448.139 478 578.207 478 L 708.275 478 707.693 435.250 C 707.373 411.738, 706.642 387.775, 706.069 382 C 702.593 346.992, 695.267 320.636, 683.828 301.983 C 657.032 258.287, 576.117 224.960, 474 215.561 C 437.411 212.193, 394.241 211.278, 357.500 213.092" stroke="none" fill="#ff0000" fill-rule="evenodd"/><path d="M 13 500 L 13 987 500 987 L 987 987 987 500 L 987 13 500 13 L 13 13 13 500 M 617 192.107 C 617 237.405, 616.742 249.106, 615.750 248.690 C 569.255 229.193, 525.034 219.098, 463 213.819 C 438.280 211.715, 352.291 212.037, 330 214.317 C 266.057 220.856, 217.036 233.600, 176.908 254.119 C 150.161 267.795, 126.466 288.014, 112.934 308.710 C 103.584 323.010, 99.796 336.013, 96.390 365.500 C 94.867 378.687, 94.609 394.760, 94.254 498.500 C 93.982 577.782, 94.210 621.914, 94.948 633 C 98.179 681.547, 108.133 716.692, 125.013 739.152 C 150.959 773.676, 209.026 799.734, 286 811.398 C 326.495 817.535, 359.150 819.396, 414.281 818.711 C 473.631 817.974, 505.597 814.360, 549 803.481 C 570.542 798.082, 599.364 787.957, 613.009 780.995 L 617 778.959 617 842.980 L 617 907 779 907 L 941 907 941 829.500 L 941 752 880 752 L 819 752 819 443.500 L 819 135 718 135 L 617 135 617 192.107 M 382.369 313.493 C 372.426 315.655, 364.870 320.604, 361.402 327.225 C 358.678 332.426, 356.053 346.578, 355.044 361.500 C 353.703 381.347, 353.688 651.459, 355.027 671.134 C 356.623 694.603, 360.722 706.911, 368.692 712.170 C 376.789 717.514, 381.940 718.503, 401.500 718.467 C 417.939 718.437, 420.006 718.233, 425.332 716.114 C 438.548 710.858, 443.053 702.870, 445.983 679.500 C 446.603 674.550, 447.378 648.563, 447.705 621.750 L 448.300 573 532.650 573 L 617 573 617 526 L 617 479 532.500 479 L 448 479 447.982 430.750 C 447.955 359.342, 446.450 336.758, 440.960 325.417 C 438.243 319.805, 431.828 315.576, 422.976 313.563 C 414.460 311.626, 391.137 311.585, 382.369 313.493" stroke="none" fill="#ffffff" fill-rule="evenodd"/><path d="M 640.250 478.749 C 652.763 478.908, 673.238 478.908, 685.750 478.749 C 698.263 478.590, 688.025 478.461, 663 478.461 C 637.975 478.461, 627.738 478.590, 640.250 478.749 M 707.310 616.500 C 707.315 619.800, 707.502 621.029, 707.725 619.232 C 707.947 617.435, 707.943 614.735, 707.715 613.232 C 707.486 611.729, 707.304 613.200, 707.310 616.500" stroke="none" fill="#040404" fill-rule="evenodd"/><path d="M 617.242 191.857 C 617.013 246.029, 616.903 249.175, 615.250 248.511 C 611.390 246.961, 610.677 247.022, 613.740 248.641 C 615.522 249.583, 617.213 250.120, 617.498 249.835 C 617.783 249.550, 617.897 223.483, 617.750 191.908 L 617.483 134.500 617.242 191.857 M 818.494 443.500 C 818.494 613.450, 818.609 682.826, 818.750 597.669 C 818.891 512.512, 818.891 373.462, 818.750 288.669 C 818.609 203.876, 818.494 273.550, 818.494 443.500 M 360.750 212.732 C 363.087 212.943, 366.913 212.943, 369.250 212.732 C 371.587 212.522, 369.675 212.349, 365 212.349 C 360.325 212.349, 358.413 212.522, 360.750 212.732 M 427.750 212.732 C 430.087 212.943, 433.913 212.943, 436.250 212.732 C 438.587 212.522, 436.675 212.349, 432 212.349 C 427.325 212.349, 425.413 212.522, 427.750 212.732 M 178.750 253.061 C 173.387 255.788, 169 258.244, 169 258.519 C 169 258.966, 188.900 249.325, 189.917 248.385 C 191.412 247.003, 187.162 248.782, 178.750 253.061 M 157.237 265.527 C 154.356 267.466, 152 269.271, 152 269.537 C 152 269.803, 154.475 268.377, 157.500 266.369 C 162.306 263.178, 163.718 262, 162.737 262 C 162.592 262, 160.117 263.587, 157.237 265.527 M 133 285.091 L 124.500 293.169 133.250 285.422 C 141.080 278.490, 142.603 276.983, 141.750 277.007 C 141.613 277.011, 137.675 280.649, 133 285.091 M 396.292 311.742 C 400.027 311.935, 405.877 311.934, 409.292 311.739 C 412.706 311.545, 409.650 311.387, 402.500 311.389 C 395.350 311.390, 392.556 311.550, 396.292 311.742 M 447.370 365 C 447.370 370.775, 447.535 373.137, 447.737 370.250 C 447.939 367.363, 447.939 362.637, 447.737 359.750 C 447.535 356.863, 447.370 359.225, 447.370 365 M 354.328 364.500 C 354.333 368.350, 354.513 369.802, 354.730 367.728 C 354.946 365.653, 354.943 362.503, 354.722 360.728 C 354.501 358.952, 354.324 360.650, 354.328 364.500 M 94.407 412 C 94.407 421.075, 94.559 424.788, 94.744 420.250 C 94.929 415.712, 94.929 408.288, 94.744 403.750 C 94.559 399.212, 94.407 402.925, 94.407 412 M 532.240 478.750 L 616.980 479.011 617.250 526.256 L 617.520 573.500 617.760 525.750 L 618 478 532.750 478.244 L 447.500 478.489 532.240 478.750 M 94.385 614 C 94.385 620.875, 94.545 623.688, 94.740 620.250 C 94.936 616.813, 94.936 611.188, 94.740 607.750 C 94.545 604.313, 94.385 607.125, 94.385 614 M 447.374 658.500 C 447.376 664.550, 447.541 666.896, 447.740 663.713 C 447.939 660.531, 447.937 655.581, 447.736 652.713 C 447.535 649.846, 447.372 652.450, 447.374 658.500 M 354.320 668 C 354.320 671.575, 354.502 673.038, 354.723 671.250 C 354.945 669.462, 354.945 666.538, 354.723 664.750 C 354.502 662.962, 354.320 664.425, 354.320 668 M 440.489 703.035 C 440.107 704.237, 438.170 707.084, 436.184 709.361 C 432.597 713.472, 432.595 713.480, 435.876 710.500 C 439.233 707.451, 442.542 702.209, 441.665 701.332 C 441.400 701.066, 440.870 701.833, 440.489 703.035 M 360 702.654 C 360 704.745, 365.800 711.545, 369.108 713.333 L 372.500 715.167 370 713.106 C 368.625 711.972, 367.153 711.034, 366.728 711.022 C 366.303 711.010, 364.616 708.887, 362.978 706.304 C 361.340 703.722, 360 702.079, 360 702.654 M 112 716.358 C 112 717.445, 118.967 731, 119.525 731 C 119.800 731, 118.392 727.737, 116.395 723.750 C 112.650 716.269, 112 715.176, 112 716.358 M 394.750 719.740 C 398.188 719.936, 403.813 719.936, 407.250 719.740 C 410.688 719.545, 407.875 719.385, 401 719.385 C 394.125 719.385, 391.313 719.545, 394.750 719.740 M 134 749.386 C 140.855 756.532, 154.154 767.065, 161.267 770.982 C 167.294 774.300, 165.825 773.097, 155.197 766.008 C 150.081 762.595, 141.756 755.934, 136.697 751.206 C 128.731 743.761, 128.370 743.517, 134 749.386 M 940.476 829.500 C 940.476 872.400, 940.599 889.804, 940.750 868.176 C 940.900 846.547, 940.900 811.447, 940.750 790.176 C 940.599 768.904, 940.476 786.600, 940.476 829.500 M 617.472 842.500 C 617.472 878.250, 617.597 892.730, 617.750 874.677 C 617.902 856.625, 617.902 827.375, 617.749 809.677 C 617.596 791.980, 617.471 806.750, 617.472 842.500 M 575.500 795.085 C 572.750 796.147, 571.800 796.762, 573.390 796.453 C 576.534 795.842, 583.124 793.166, 581.500 793.159 C 580.950 793.157, 578.250 794.024, 575.500 795.085 M 364.280 818.736 C 366.909 818.943, 370.959 818.940, 373.280 818.731 C 375.601 818.521, 373.450 818.352, 368.500 818.355 C 363.550 818.358, 361.651 818.530, 364.280 818.736 M 431.750 818.732 C 434.087 818.943, 437.913 818.943, 440.250 818.732 C 442.587 818.522, 440.675 818.349, 436 818.349 C 431.325 818.349, 429.413 818.522, 431.750 818.732" stroke="none" fill="#fbfbfb" fill-rule="evenodd"/></svg>